# xmcd
#
# Track frame offsets:
#	200
#	10637
#	28080
#	40900
#	56492
#	72032
#	87727
#	102022
#	114517
#	127130
#
# Disc length: 1867 seconds
#
# Revision: 0
# Processed by: cddbd v1.5.1PL0 Copyright (c) Steve Scherf et al.
# Submitted via: dBpowerAMP V4.0
#
DISCID=8007490a
DTITLE=Ronnie Prophet - Prophet Of Love
DYEAR=1991
DGENRE=Country
TTITLE0=Prophet Of Love
TTITLE1=I Won't Be there
TTITLE2=The Real Thing
TTITLE3=She Won't Let Go
TTITLE4=Touch Of Class
TTITLE5=I'm Your New Old Love
TTITLE6=Love Is What We Make It
TTITLE7=The Feeling Of Love
TTITLE8=Two Hearts
TTITLE9=Hollywood Shuffle
EXTD=
EXTT0=
EXTT1=
EXTT2=
EXTT3=
EXTT4=
EXTT5=
EXTT6=
EXTT7=
EXTT8=
EXTT9=
PLAYORDER=
